# AST/ASF file generated using VICON BodyLanguage
# -----------------------------------------------
:version 1.10
:name VICON
:units
  mass 1.0
  length 0.45
  angle deg
:documentation
   .ast/.asf automatically generated from VICON data using
   VICON BodyBuilder and BodyLanguage model FoxedUp or BRILLIANT.MOD
:root
   order TX TY TZ RX RY RZ
   axis XYZ
   position 0 0 0  
   orientation 0 0 0 
:bonedata
  begin
     id 1 
     name lhipjoint
     direction 0.677091 -0.635792 0.370561 
     length 2.74323 
     axis 0 0 0  XYZ
  end
  begin
     id 2 
     name lfemur
     direction 0.34202 -0.939693 0  
     length 7.44995  
     axis 0 0 20  XYZ
    dof rx ry rz
    limits (-160.0 20.0)
           (-70.0 70.0)
           (-60.0 70.0)
  end
  begin
     id 3 
     name ltibia
     direction 0.34202 -0.939693 0   
     length 7.34467   
     axis 0 0 20   XYZ
    dof rx
    limits (-10.0 170.0)
  end
  begin
     id 4 
     name lfoot
     direction 0.101953 -0.280114 0.954537   
     length 1.72105   
     axis -90 7.62852e-016 20   XYZ
    dof rx rz
    limits (-45.0 90.0)
           (-70.0 20.0)
  end
  begin
     id 5 
     name ltoes
     direction 1.53537e-011 -4.21915e-011 1   
     length 0.865872   
     axis -90 7.62852e-016 20   XYZ
    dof rx
    limits (-90.0 20.0)
  end
  begin
     id 6 
     name rhipjoint
     direction -0.695735 -0.620586 0.361699   
     length 2.81045  
     axis 0 0 0  XYZ 
  end
  begin
     id 7 
     name rfemur
     direction -0.34202 -0.939693 0   
     length 7.29387   
     axis 0 0 -20   XYZ
    dof rx ry rz
    limits (-160.0 20.0)
           (-70.0 70.0)
           (-70.0 60.0)
  end
  begin
     id 8 
     name rtibia
     direction -0.34202 -0.939693 0   
     length 7.44935   
     axis 0 0 -20   XYZ
    dof rx
    limits (-10.0 170.0)
 end
 begin
     id 9 
     name rfoot
     direction -0.104163 -0.286184 0.952496   
     length 1.77731  
     axis -90 -7.62852e-016 -20   XYZ
    dof rx rz
    limits (-45.0 90.0)
           (-20.0 70.0)
  end
  begin
     id 10 
     name rtoes
     direction -1.5355e-011 -4.21888e-011 1   
     length 0.892424   
     axis -90 -7.62852e-016 -20   XYZ
    dof rx
    limits (-90.0 20.0)
  end
  begin
     id 11 
     name lowerback
     direction 0.0100202 0.997226 -0.0737589   
     length 2.16892   
     axis 0 0 0   XYZ
    dof rx ry rz
    limits (-20.0 45.0)
           (-30.0 30.0)
           (-30.0 30.0)
  end
  begin
     id 12 
     name upperback
     direction 0.00432398 0.999988 -0.00215019   
     length 2.17326   
     axis 0 0 0   XYZ
    dof rx ry rz
    limits (-20.0 45.0)
           (-30.0 30.0)
           (-30.0 30.0)
  end
  begin
     id 13 
     name thorax
     direction -0.00195047 0.999485 0.0320434   
     length 2.18139   
     axis 0 0 0   XYZ
    dof rx ry rz
    limits (-20.0 45.0)
           (-30.0 30.0)
           (-30.0 30.0)
  end
  begin
     id 14 
     name lowerneck
     direction 0.00782762 0.986241 0.165128   
     length 1.88415   
     axis 0 0 0   XYZ
    dof rx ry rz
    limits (-20.0 45.0)
           (-30.0 30.0)
           (-30.0 30.0)
  end
  begin
     id 15 
     name upperneck
     direction 0.00988667 0.981098 -0.193258   
     length 1.9242   
     axis 0 0 0   XYZ
    dof rx ry rz
    limits (-20.0 45.0)
           (-30.0 30.0)
           (-30.0 30.0)
  end
  begin
     id 16
     name head
     direction 0.00252199 0.996513 -0.0833958  
     length 1.93887  
     axis 0 0 0   XYZ
    dof rx ry rz
    limits (-20.0 45.0)
           (-30.0 30.0)
           (-30.0 30.0)
  end
  begin
     id 17 
     name lclavicle
     direction 0.929492 0.368193 -0.0218667  
     length 3.5955  
     axis 0 0 0   XYZ
    dof ry rz
    limits (-20.0 10.0)
           (0.0 20.0)
  end
  begin
     id 18 
     name lhumerus
     direction 1 -4.48972e-011 1.41911e-027   
     length 5.2795   
     axis 180 -30 -90   XYZ
    dof rx ry rz
    limits (-60.0 90.0)
           (-90.0 90.0)
           (-90.0 90.0)
  end
  begin
     id 19
     name lradius
     direction 1 -4.48963e-011 7.05772e-027   
     length 3.53504   
     axis 180 -30 -90   XYZ
    dof rx
    limits (-10.0 170.0)
  end
  begin
     id 20
     name lwrist
     direction 1 -4.48957e-011 9.54866e-027   
     length 1.76752   
     axis -7.69462e-015 90 90   XYZ
    dof ry
    limits (-180.0 0.0)
 end
  begin
     id 21 
     name lhand
     direction 1 -4.48979e-011 1.90973e-026   
     length 0.667948   
     axis -1.21857e-014 90 90   XYZ
    dof rx rz
    limits (-90.0 90.0)
           (-45.0 45.0)
  end
  begin
     id 22 
     name lfingers
     direction 1 -4.48987e-011 3.81946e-026   
     length 0.538517   
     axis -2.43714e-014 90 90   XYZ
    dof rx
    limits (0.0 90.0)
  end
  begin
     id 23
     name lthumb
     direction 0.707107 -6.34962e-011 0.707107   
     length 0.773206   
     axis -90 45 2.85299e-015   XYZ
    dof rx rz
    limits (-45.0 45.0)
           (-45.0 45.0)
  end
  begin
     id 24 
     name rclavicle
     direction -0.898763 0.414256 -0.143584   
     length 3.5176  
     axis 0 0 0   XYZ 
    dof ry rz
    limits (-10.0 20.0)
           (-20.0 0.0)
  end
  begin
     id 25 
     name rhumerus
     direction -1 -4.48971e-011 1.129e-027  
     length 5.25035   
     axis 180 30 90   XYZ
    dof rx ry rz
    limits (-90.0 60.0)
           (-90.0 90.0)
           (-90.0 90.0)
  end
  begin
     id 26 
     name rradius
     direction -1 -4.48955e-011 6.34664e-027   
     length 3.58884   
     axis 180 30 90   XYZ
    dof rx
    limits (-10.0 170.0)
  end
  begin
     id 27 
     name rwrist
     direction -1 -4.48966e-011 9.54866e-027   
     length 1.79442   
     axis -7.69462e-015 -90 -90   XYZ
    dof ry
    limits (-180.0 0.0)
  end
  begin
     id 28
     name rhand
     direction -1 -4.48973e-011 1.90973e-026   
     length 0.779235   
     axis -1.21857e-014 -90 -90   XYZ
    dof rx rz
    limits (-90.0 90.0)
           (-45.0 45.0)
  end
  begin
     id 29
     name rfingers
     direction -1 -4.48984e-011 3.81946e-026   
     length 0.62824   
     axis -2.43714e-014 -90 -90   XYZ
    dof rx
    limits (0.0 90.0)
  end
  begin
     id 30
     name rthumb
     direction -0.707107 -6.34968e-011 0.707107   
     length 0.90203   
     axis -90 -45 -2.85299e-015   XYZ
    dof rx rz
    limits (-45.0 45.0)
           (-45.0 45.0)
  end
:hierarchy
  begin
    root lhipjoint rhipjoint lowerback
    lhipjoint lfemur
    lfemur ltibia
    ltibia lfoot
    lfoot ltoes
    rhipjoint rfemur
    rfemur rtibia
    rtibia rfoot
    rfoot rtoes
    lowerback upperback
    upperback thorax
    thorax lowerneck lclavicle rclavicle
    lowerneck upperneck
    upperneck head
    lclavicle lhumerus
    lhumerus lradius
    lradius lwrist
    lwrist lhand lthumb
    lhand lfingers
    rclavicle rhumerus
    rhumerus rradius
    rradius rwrist
    rwrist rhand rthumb
    rhand rfingers
  end

#!OML:ASF I:\Random Stuff\random\construction\7_22_03\Session 2\subj1.ASF
:FULLY-SPECIFIED
:DEGREES
316
root -10.8184 17.6577 -5.25455 -335.269 81.4054 -364.175
lowerback 27.2041 3.30606 -3.03326
upperback 9.47453 4.19088 1.10545
thorax -4.72893 2.24326 1.65009
lowerneck -10.8927 0.816008 -4.67258
upperneck 32.22 3.69824 -0.624778
head 12.4056 1.30013 1.14416
rclavicle 1.35174e-014 -1.43125e-014
rhumerus -20.9332 30.6488 -91.9525
rradius 97.5798
rwrist -30.7296
rhand -45.5759 16.5922
rfingers 7.12502
rthumb -18.3377 -12.5635
lclavicle 1.35174e-014 -1.43125e-014
lhumerus 12.7349 -14.5798 62.6344
lradius 61.5515
lwrist 5.24394
lhand -37.227 74.1573
lfingers 7.12502
lthumb -10.2936 256.115
rfemur -44.0679 6.70241 7.24512
rtibia 19.0478
rfoot -3.76817 -6.99811
rtoes -24.5277
lfemur -43.7865 -2.77653 -9.14829
ltibia 24.6517
lfoot -15.0246 6.12853
ltoes -19.3941
317
root -10.8188 17.6586 -5.25109 -335.169 81.4691 -364.09
lowerback 27.1989 3.38243 -3.02563
upperback 9.49102 4.29237 1.12698
thorax -4.71484 2.29211 1.63853
lowerneck -10.9522 0.774777 -4.70327
upperneck 32.1681 3.59163 -0.46789
head 12.3933 1.26903 1.19488
rclavicle 1.59028e-014 1.86858e-014
rhumerus -21.3041 29.6014 -92.1197
rradius 98.2639
rwrist -30.1376
rhand -46.1538 16.8601
rfingers 7.12502
rthumb -18.8936 -12.2423
lclavicle 1.59028e-014 1.86858e-014
lhumerus 13.1682 -15.3261 62.3004
lradius 61.4208
lwrist 5.07093
lhand -37.1269 74.1032
lfingers 7.12502
lthumb -10.1971 256.164
rfemur -44.0727 6.61925 7.28747
rtibia 19.0738
rfoot -3.79542 -6.97507
rtoes -24.4686
lfemur -43.8012 -2.78448 -9.14625
ltibia 24.6124
lfoot -14.9791 6.08473
ltoes -19.7245
318
root -10.8192 17.6583 -5.24605 -335.17 81.5292 -364.115
lowerback 27.1858 3.45514 -3.086
upperback 9.4885 4.37343 1.1864
thorax -4.72413 2.32951 1.71306
lowerneck -10.9694 0.748769 -4.74675
upperneck 32.1122 3.53252 -0.385729
head 12.372 1.24896 1.22509
rclavicle 1.82882e-014 -1.94809e-014
rhumerus -21.5865 28.7796 -92.1673
rradius 98.8256
rwrist -29.7952
rhand -47.2414 17.7857
rfingers 7.12502
rthumb -19.9393 -11.2114
lclavicle 1.82882e-014 -1.94809e-014
lhumerus 13.5024 -15.8189 62.1366
lradius 61.2506
lwrist 4.79363
lhand -36.9385 74.2684
lfingers 7.12502
lthumb -10.0153 255.99
rfemur -44.0939 6.58175 7.32429
rtibia 19.1019
rfoot -3.81079 -6.97612
rtoes -24.4344
lfemur -43.816 -2.81463 -9.1021
ltibia 24.559
lfoot -14.9427 6.08342
ltoes -19.7554
319
root -10.8174 17.6581 -5.2414 -335.308 81.6021 -364.228
lowerback 27.2245 3.48012 -3.1627
upperback 9.48458 4.39042 1.25488
thorax -4.75792 2.33647 1.82401
lowerneck -11.0156 0.766257 -4.76846
upperneck 32.1242 3.56531 -0.385416
head 12.3857 1.2599 1.2342
rclavicle 7.95139e-016 -3.97569e-015
rhumerus -21.8003 28.2613 -92.2077
rradius 99.1882
rwrist -29.5861
rhand -48.5584 19.1327
rfingers 7.12502
rthumb -21.2049 -9.72747
lclavicle 7.95139e-016 -3.97569e-015
lhumerus 13.7483 -16.0447 62.0603
lradius 60.9952
lwrist 4.44573
lhand -36.8681 74.7698
lfingers 7.12502
lthumb -9.9474 255.485
rfemur -44.0521 6.55173 7.38452
rtibia 19.1345
rfoot -3.87028 -6.96964
rtoes -24.3325
lfemur -43.7648 -2.9558 -8.99223
ltibia 24.4963
lfoot -14.9108 6.19214
ltoes -19.7244
320
root -10.813 17.6592 -5.23895 -335.354 81.7084 -364.178
lowerback 27.3302 3.45125 -3.23695
upperback 9.486 4.33991 1.31803
thorax -4.81281 2.31213 1.94584
lowerneck -11.0471 0.821289 -4.80734
upperneck 32.1513 3.65543 -0.382902
head 12.4008 1.2937 1.25464
rclavicle 6.52014e-014 5.1684e-015
rhumerus -21.9316 27.9436 -92.2264
rradius 99.4714
rwrist -29.4991
rhand -49.1541 19.5798
rfingers 7.12502
rthumb -21.777 -9.2151
lclavicle 6.52014e-014 5.1684e-015
lhumerus 13.8298 -16.1004 62.0094
lradius 60.8198
lwrist 4.26075
lhand -36.9146 75.2136
lfingers 7.12502
lthumb -9.99221 255.044
rfemur -43.9084 6.42949 7.47949
rtibia 19.1695
rfoot -3.94802 -6.90623
rtoes -24.3464
lfemur -43.6392 -3.15209 -8.90457
ltibia 24.4361
lfoot -14.869 6.26168
ltoes -19.6192
321
root -10.8108 17.6602 -5.23723 -335.355 81.8056 -364.138
lowerback 27.3977 3.41476 -3.29724
upperback 9.44427 4.27862 1.36689
thorax -4.89486 2.28212 2.04807
lowerneck -11.005 0.89396 -4.82453
upperneck 32.1727 3.77424 -0.413878
head 12.3986 1.34014 1.26123
rclavicle -1.35174e-014 -1.82882e-014
rhumerus -22.0206 27.752 -92.1981
rradius 99.6982
rwrist -29.4254
rhand -49.2163 19.1652
rfingers 7.12502
rthumb -21.8367 -9.62277
lclavicle -1.35174e-014 -1.82882e-014
lhumerus 13.7295 -16.199 61.9149
lradius 60.7424
lwrist 4.21882
lhand -36.9457 75.4507
lfingers 7.12502
lthumb -10.0222 254.808
rfemur -43.8272 6.30956 7.55672
rtibia 19.1842
rfoot -3.96733 -6.87159
rtoes -24.4821
lfemur -43.5902 -3.31887 -8.82105
ltibia 24.4126
lfoot -14.8643 6.34441
ltoes -19.3688
322
root -10.8106 17.6604 -5.23496 -335.489 81.9216 -364.271
lowerback 27.4204 3.36555 -3.28269
upperback 9.39032 4.2179 1.38929
thorax -4.96302 2.253 2.08042
lowerneck -11.0017 0.939386 -4.78917
upperneck 32.2255 3.83798 -0.418266
head 12.4186 1.37078 1.26271
rclavicle 2.46493e-014 3.18055e-014
rhumerus -22.1073 27.6415 -92.1465
rradius 99.9298
rwrist -29.3809
rhand -49.3133 18.4982
rfingers 7.12502
rthumb -21.9299 -10.2788
lclavicle 2.46493e-014 3.18055e-014
lhumerus 13.6091 -16.4022 61.7246
lradius 60.6592
lwrist 4.22213
lhand -36.9178 75.4961
lfingers 7.12502
lthumb -9.99534 254.761
rfemur -43.8098 6.26243 7.60808
rtibia 19.2326
rfoot -4.01118 -6.92145
rtoes -24.4577
lfemur -43.5914 -3.46627 -8.70865
ltibia 24.3727
lfoot -14.8516 6.43465
ltoes -19.5672
323
root -10.8139 17.6586 -5.22861 -336.077 81.8799 -365.017
lowerback 27.19 3.40605 -3.31172
upperback 9.34676 4.26118 1.39387
thorax -4.90705 2.27049 2.09777
lowerneck -11.1093 0.926187 -4.76659
upperneck 32.2831 3.79832 -0.342511
head 12.4637 1.36228 1.285
rclavicle -2.22639e-014 -4.37326e-015
rhumerus -22.1709 27.5246 -92.0379
rradius 100.191
rwrist -29.4732
rhand -49.3295 17.6407
rfingers 7.12502
rthumb -21.9454 -11.1345
lclavicle -2.22639e-014 -4.37326e-015
lhumerus 13.6241 -16.6701 61.4981
lradius 60.4798
lwrist 4.2416
lhand -36.8024 75.4738
lfingers 7.12502
lthumb -9.88398 254.778
rfemur -44.022 6.2904 7.70631
rtibia 19.2526
rfoot -4.00741 -6.85844
rtoes -24.4238
lfemur -43.7601 -3.35745 -8.5788
ltibia 24.3886
lfoot -14.8781 6.44753
ltoes -19.7669
324
root -10.8119 17.6583 -5.2295 -335.777 82.1892 -364.644
lowerback 27.2449 3.26955 -3.07289
upperback 9.3574 4.15182 1.38017
thorax -4.89998 2.22259 1.97867
lowerneck -11.2327 0.884829 -4.72546
upperneck 32.2651 3.71981 -0.311698
head 12.4836 1.33452 1.28074
rclavicle 2.06736e-014 3.61788e-014
rhumerus -22.181 27.4301 -91.8687
rradius 100.323
rwrist -29.5244
rhand -49.2069 16.814
rfingers 7.12502
rthumb -21.8277 -11.975
lclavicle 2.06736e-014 3.61788e-014
lhumerus 13.7686 -17.0082 61.3143
lradius 60.0967
lwrist 3.89484
lhand -36.9151 75.1637
lfingers 7.12502
lthumb -9.99276 255.094
rfemur -43.8573 6.12341 7.72284
rtibia 19.2776
rfoot -4.02447 -7.02285
rtoes -24.3704
lfemur -43.7843 -3.54926 -8.58169
ltibia 24.4005
lfoot -14.8985 6.32979
ltoes -19.2885
325
root -10.8138 17.6582 -5.22226 -336.645 82.0357 -365.621
lowerback 27.0109 3.37161 -3.16544
upperback 9.3354 4.25605 1.36695
thorax -4.82374 2.26872 1.99477
lowerneck -11.2721 0.878772 -4.69135
upperneck 32.1987 3.67292 -0.247762
head 12.4635 1.32541 1.29202
rclavicle -7.07673e-014 -1.98785e-014
rhumerus -22.1874 27.6005 -91.7759
rradius 100.192
rwrist -29.3737
rhand -48.906 16.1663
rfingers 7.12502
rthumb -21.5388 -12.656
lclavicle -7.07673e-014 -1.98785e-014
lhumerus 13.8216 -17.3095 61.1459
lradius 59.6546
lwrist 3.19703
lhand -37.3173 74.747
lfingers 7.12502
lthumb -10.3807 255.529
rfemur -44.0513 6.19403 7.86924
rtibia 19.2947
rfoot -3.98207 -6.89067
rtoes -24.3651
lfemur -43.8558 -3.38814 -8.44868
ltibia 24.4347
lfoot -14.9695 6.37754
ltoes -19.048
326
root -10.8124 17.6589 -5.21862 -336.773 82.0832 -365.727
lowerback 26.9247 3.34267 -3.21428
upperback 9.30249 4.20455 1.33527
thorax -4.81646 2.24318 2.00692
lowerneck -11.2373 0.857996 -4.65248
upperneck 32.1339 3.58779 -0.142309
head 12.4281 1.30613 1.3119
rclavicle 2.8625e-014 1.86858e-014
rhumerus -22.2034 28.0228 -91.7832
rradius 99.8862
rwrist -29.0479
rhand -48.3255 15.1257
rfingers 7.12502
rthumb -20.9811 -13.7595
lclavicle 2.8625e-014 1.86858e-014
lhumerus 13.7524 -17.4009 61.0072
lradius 59.5284
lwrist 3.23851
lhand -37.3994 74.7869
lfingers 7.12502
lthumb -10.4599 255.493
rfemur -44.0404 6.09606 7.96803
rtibia 19.3549
rfoot -4.03624 -6.76501
rtoes -24.3455
lfemur -43.8212 -3.47145 -8.37668
ltibia 24.4023
lfoot -14.9769 6.39854
ltoes -18.8047
